# xmcd CD database file
#
# Track frame offsets:
#	150
#	19974
#	30129
#	44523
#	63061
#	75058
#	79229
#	94669
#	105404
#	114966
#	127111
#	142523
#	156679
#	171958
#	186835
#	211597
#
# Disc length: 2997 seconds
#
# Revision: 0
# Processed by: cddbd v1.5.2PL0 Copyright (c) Steve Scherf et al.
# Submitted via: CDex 1.70beta2
#
DISCID=bc0bb310
DTITLE=Wolfgang Dauner - Tribute to the past
DYEAR=1900
DGENRE=Jazz
TTITLE0=Dream Talk
TTITLE1=Seikilos Lied
TTITLE2=Petronella
TTITLE3=Yesterdays
TTITLE4=it ain't necessarily so
TTITLE5=Here come the honey man
TTITLE6=I loves you Porgy
TTITLE7=My man's gone now
TTITLE8=Summertime
TTITLE9=My funny valentine
TTITLE10=Bindungen, samt den Fügungen des Zufalls, die es dahin gebracht
TTITLE11=All the things you are
TTITLE12=Wheat song
TTITLE13=Hong Kong Fu
TTITLE14=Wendekreis des Steinbocks in Erinnerung an Hans Georg Brunner-Schwer
TTITLE15=Blue Light
EXTD=
EXTT0=
EXTT1=
EXTT2=
EXTT3=
EXTT4=
EXTT5=
EXTT6=
EXTT7=
EXTT8=
EXTT9=
EXTT10=
EXTT11=
EXTT12=
EXTT13=
EXTT14=
EXTT15=
PLAYORDER=
